<svg width="1505" height="758" viewBox="0 0 1505 758" fill="none" xmlns="http://www.w3.org/2000/svg">
<g clip-path="url(#clip0_1_68)">
<path d="M85.0909 494.857V587.948H74.1818L23.4545 514.857H22.5455V587.948H11.2727V494.857H22.1818L73.0909 568.129H74V494.857H85.0909ZM107.648 587.948V494.857H163.83V504.857H118.92V536.311H160.92V546.311H118.92V577.948H164.557V587.948H107.648ZM245.239 494.857H256.511V556.493C256.511 562.857 255.011 568.539 252.011 573.539C249.042 578.508 244.845 582.433 239.42 585.311C233.996 588.16 227.633 589.584 220.33 589.584C213.027 589.584 206.663 588.16 201.239 585.311C195.814 582.433 191.602 578.508 188.602 573.539C185.633 568.539 184.148 562.857 184.148 556.493V494.857H195.42V555.584C195.42 560.129 196.42 564.175 198.42 567.72C200.42 571.236 203.269 574.008 206.966 576.039C210.693 578.039 215.148 579.039 220.33 579.039C225.511 579.039 229.966 578.039 233.693 576.039C237.42 574.008 240.269 571.236 242.239 567.72C244.239 564.175 245.239 560.129 245.239 555.584V494.857ZM279.023 587.948V494.857H335.205V504.857H290.295V536.311H332.295V546.311H290.295V577.948H335.932V587.948H279.023ZM406.432 518.129C405.886 513.523 403.674 509.948 399.795 507.402C395.917 504.857 391.159 503.584 385.523 503.584C381.402 503.584 377.795 504.251 374.705 505.584C371.644 506.917 369.25 508.751 367.523 511.084C365.826 513.417 364.977 516.069 364.977 519.039C364.977 521.523 365.568 523.66 366.75 525.448C367.962 527.205 369.508 528.675 371.386 529.857C373.265 531.008 375.235 531.963 377.295 532.72C379.356 533.448 381.25 534.039 382.977 534.493L392.432 537.039C394.856 537.675 397.553 538.554 400.523 539.675C403.523 540.796 406.386 542.326 409.114 544.266C411.871 546.175 414.144 548.629 415.932 551.629C417.72 554.629 418.614 558.311 418.614 562.675C418.614 567.705 417.295 572.251 414.659 576.311C412.053 580.372 408.235 583.599 403.205 585.993C398.205 588.387 392.129 589.584 384.977 589.584C378.311 589.584 372.538 588.508 367.659 586.357C362.811 584.205 358.992 581.205 356.205 577.357C353.447 573.508 351.886 569.039 351.523 563.948H363.159C363.462 567.463 364.644 570.372 366.705 572.675C368.795 574.948 371.432 576.645 374.614 577.766C377.826 578.857 381.28 579.402 384.977 579.402C389.28 579.402 393.144 578.705 396.568 577.311C399.992 575.887 402.705 573.917 404.705 571.402C406.705 568.857 407.705 565.887 407.705 562.493C407.705 559.402 406.841 556.887 405.114 554.948C403.386 553.008 401.114 551.433 398.295 550.22C395.477 549.008 392.432 547.948 389.159 547.039L377.705 543.766C370.432 541.675 364.674 538.69 360.432 534.811C356.189 530.933 354.068 525.857 354.068 519.584C354.068 514.372 355.477 509.826 358.295 505.948C361.144 502.039 364.962 499.008 369.75 496.857C374.568 494.675 379.947 493.584 385.886 493.584C391.886 493.584 397.22 494.66 401.886 496.811C406.553 498.933 410.25 501.842 412.977 505.539C415.735 509.236 417.189 513.433 417.341 518.129H406.432ZM536.784 523.948C535.784 520.887 534.466 518.145 532.83 515.72C531.223 513.266 529.299 511.175 527.057 509.448C524.845 507.72 522.33 506.402 519.511 505.493C516.693 504.584 513.602 504.129 510.239 504.129C504.723 504.129 499.708 505.554 495.193 508.402C490.678 511.251 487.087 515.448 484.42 520.993C481.754 526.539 480.42 533.342 480.42 541.402C480.42 549.463 481.769 556.266 484.466 561.811C487.163 567.357 490.814 571.554 495.42 574.402C500.027 577.251 505.208 578.675 510.966 578.675C516.299 578.675 520.996 577.539 525.057 575.266C529.148 572.963 532.33 569.72 534.602 565.539C536.905 561.326 538.057 556.372 538.057 550.675L541.511 551.402H513.511V541.402H548.966V551.402C548.966 559.069 547.33 565.736 544.057 571.402C540.814 577.069 536.33 581.463 530.602 584.584C524.905 587.675 518.36 589.22 510.966 589.22C502.723 589.22 495.481 587.281 489.239 583.402C483.027 579.523 478.178 574.008 474.693 566.857C471.239 559.705 469.511 551.22 469.511 541.402C469.511 534.039 470.496 527.417 472.466 521.539C474.466 515.629 477.284 510.599 480.92 506.448C484.557 502.296 488.86 499.114 493.83 496.902C498.799 494.69 504.269 493.584 510.239 493.584C515.148 493.584 519.723 494.326 523.966 495.811C528.239 497.266 532.042 499.342 535.375 502.039C538.739 504.705 541.542 507.902 543.784 511.629C546.027 515.326 547.572 519.433 548.42 523.948H536.784ZM557.398 494.857H570.307L596.125 538.311H597.216L623.034 494.857H635.943L602.307 549.584V587.948H591.034V549.584L557.398 494.857ZM650.523 494.857H663.977L695.614 572.129H696.705L728.341 494.857H741.795V587.948H731.25V517.22H730.341L701.25 587.948H691.068L661.977 517.22H661.068V587.948H650.523V494.857ZM838.216 494.857V587.948H827.307L776.58 514.857H775.67V587.948H764.398V494.857H775.307L826.216 568.129H827.125V494.857H838.216ZM864.591 587.948H852.773L886.955 494.857H898.591L932.773 587.948H920.955L893.136 509.584H892.409L864.591 587.948ZM868.955 551.584H916.591V561.584H868.955V551.584ZM998.182 518.129C997.636 513.523 995.424 509.948 991.545 507.402C987.667 504.857 982.909 503.584 977.273 503.584C973.152 503.584 969.545 504.251 966.455 505.584C963.394 506.917 961 508.751 959.273 511.084C957.576 513.417 956.727 516.069 956.727 519.039C956.727 521.523 957.318 523.66 958.5 525.448C959.712 527.205 961.258 528.675 963.136 529.857C965.015 531.008 966.985 531.963 969.045 532.72C971.106 533.448 973 534.039 974.727 534.493L984.182 537.039C986.606 537.675 989.303 538.554 992.273 539.675C995.273 540.796 998.136 542.326 1000.86 544.266C1003.62 546.175 1005.89 548.629 1007.68 551.629C1009.47 554.629 1010.36 558.311 1010.36 562.675C1010.36 567.705 1009.05 572.251 1006.41 576.311C1003.8 580.372 999.985 583.599 994.955 585.993C989.955 588.387 983.879 589.584 976.727 589.584C970.061 589.584 964.288 588.508 959.409 586.357C954.561 584.205 950.742 581.205 947.955 577.357C945.197 573.508 943.636 569.039 943.273 563.948H954.909C955.212 567.463 956.394 570.372 958.455 572.675C960.545 574.948 963.182 576.645 966.364 577.766C969.576 578.857 973.03 579.402 976.727 579.402C981.03 579.402 984.894 578.705 988.318 577.311C991.742 575.887 994.455 573.917 996.455 571.402C998.455 568.857 999.455 565.887 999.455 562.493C999.455 559.402 998.591 556.887 996.864 554.948C995.136 553.008 992.864 551.433 990.045 550.22C987.227 549.008 984.182 547.948 980.909 547.039L969.455 543.766C962.182 541.675 956.424 538.69 952.182 534.811C947.939 530.933 945.818 525.857 945.818 519.584C945.818 514.372 947.227 509.826 950.045 505.948C952.894 502.039 956.712 499.008 961.5 496.857C966.318 494.675 971.697 493.584 977.636 493.584C983.636 493.584 988.97 494.66 993.636 496.811C998.303 498.933 1002 501.842 1004.73 505.539C1007.48 509.236 1008.94 513.433 1009.09 518.129H998.182ZM1040.17 494.857V587.948H1028.9V494.857H1040.17ZM1123.86 494.857H1135.14V556.493C1135.14 562.857 1133.64 568.539 1130.64 573.539C1127.67 578.508 1123.47 582.433 1118.05 585.311C1112.62 588.16 1106.26 589.584 1098.95 589.584C1091.65 589.584 1085.29 588.16 1079.86 585.311C1074.44 582.433 1070.23 578.508 1067.23 573.539C1064.26 568.539 1062.77 562.857 1062.77 556.493V494.857H1074.05V555.584C1074.05 560.129 1075.05 564.175 1077.05 567.72C1079.05 571.236 1081.89 574.008 1085.59 576.039C1089.32 578.039 1093.77 579.039 1098.95 579.039C1104.14 579.039 1108.59 578.039 1112.32 576.039C1116.05 574.008 1118.89 571.236 1120.86 567.72C1122.86 564.175 1123.86 560.129 1123.86 555.584V494.857ZM1157.65 494.857H1171.1L1202.74 572.129H1203.83L1235.47 494.857H1248.92V587.948H1238.38V517.22H1237.47L1208.38 587.948H1198.19L1169.1 517.22H1168.19V587.948H1157.65V494.857ZM11.2727 757.948V664.857H43.8182C50.303 664.857 55.6515 665.978 59.8636 668.22C64.0758 670.433 67.2121 673.417 69.2727 677.175C71.3333 680.902 72.3636 685.039 72.3636 689.584C72.3636 693.584 71.6515 696.887 70.2273 699.493C68.8333 702.099 66.9849 704.16 64.6818 705.675C62.4091 707.19 59.9394 708.311 57.2727 709.039V709.948C60.1212 710.129 62.9849 711.129 65.8636 712.948C68.7424 714.766 71.1515 717.372 73.0909 720.766C75.0303 724.16 76 728.311 76 733.22C76 737.887 74.9394 742.084 72.8182 745.811C70.697 749.539 67.3485 752.493 62.7727 754.675C58.197 756.857 52.2424 757.948 44.9091 757.948H11.2727ZM22.5455 747.948H44.9091C52.2727 747.948 57.5 746.523 60.5909 743.675C63.7121 740.796 65.2727 737.311 65.2727 733.22C65.2727 730.069 64.4697 727.16 62.8636 724.493C61.2576 721.796 58.9697 719.645 56 718.039C53.0303 716.402 49.5152 715.584 45.4545 715.584H22.5455V747.948ZM22.5455 705.766H43.4545C46.8485 705.766 49.9091 705.099 52.6364 703.766C55.3939 702.433 57.5758 700.554 59.1818 698.129C60.8182 695.705 61.6364 692.857 61.6364 689.584C61.6364 685.493 60.2121 682.023 57.3636 679.175C54.5152 676.296 50 674.857 43.8182 674.857H22.5455V705.766ZM173.068 711.402C173.068 721.22 171.295 729.705 167.75 736.857C164.205 744.008 159.341 749.523 153.159 753.402C146.977 757.281 139.917 759.22 131.977 759.22C124.038 759.22 116.977 757.281 110.795 753.402C104.614 749.523 99.75 744.008 96.2045 736.857C92.6591 729.705 90.8864 721.22 90.8864 711.402C90.8864 701.584 92.6591 693.099 96.2045 685.948C99.75 678.796 104.614 673.281 110.795 669.402C116.977 665.523 124.038 663.584 131.977 663.584C139.917 663.584 146.977 665.523 153.159 669.402C159.341 673.281 164.205 678.796 167.75 685.948C171.295 693.099 173.068 701.584 173.068 711.402ZM162.159 711.402C162.159 703.342 160.811 696.539 158.114 690.993C155.447 685.448 151.826 681.251 147.25 678.402C142.705 675.554 137.614 674.129 131.977 674.129C126.341 674.129 121.235 675.554 116.659 678.402C112.114 681.251 108.492 685.448 105.795 690.993C103.129 696.539 101.795 703.342 101.795 711.402C101.795 719.463 103.129 726.266 105.795 731.811C108.492 737.357 112.114 741.554 116.659 744.402C121.235 747.251 126.341 748.675 131.977 748.675C137.614 748.675 142.705 747.251 147.25 744.402C151.826 741.554 155.447 737.357 158.114 731.811C160.811 726.266 162.159 719.463 162.159 711.402ZM266.932 693.948H255.659C254.992 690.705 253.826 687.857 252.159 685.402C250.523 682.948 248.523 680.887 246.159 679.22C243.826 677.523 241.235 676.251 238.386 675.402C235.538 674.554 232.568 674.129 229.477 674.129C223.841 674.129 218.735 675.554 214.159 678.402C209.614 681.251 205.992 685.448 203.295 690.993C200.629 696.539 199.295 703.342 199.295 711.402C199.295 719.463 200.629 726.266 203.295 731.811C205.992 737.357 209.614 741.554 214.159 744.402C218.735 747.251 223.841 748.675 229.477 748.675C232.568 748.675 235.538 748.251 238.386 747.402C241.235 746.554 243.826 745.296 246.159 743.629C248.523 741.933 250.523 739.857 252.159 737.402C253.826 734.917 254.992 732.069 255.659 728.857H266.932C266.083 733.614 264.538 737.872 262.295 741.629C260.053 745.387 257.265 748.584 253.932 751.22C250.598 753.826 246.856 755.811 242.705 757.175C238.583 758.539 234.174 759.22 229.477 759.22C221.538 759.22 214.477 757.281 208.295 753.402C202.114 749.523 197.25 744.008 193.705 736.857C190.159 729.705 188.386 721.22 188.386 711.402C188.386 701.584 190.159 693.099 193.705 685.948C197.25 678.796 202.114 673.281 208.295 669.402C214.477 665.523 221.538 663.584 229.477 663.584C234.174 663.584 238.583 664.266 242.705 665.629C246.856 666.993 250.598 668.993 253.932 671.629C257.265 674.236 260.053 677.417 262.295 681.175C264.538 684.902 266.083 689.16 266.932 693.948ZM285.148 757.948V664.857H296.42V706.311H346.057V664.857H357.33V757.948H346.057V716.311H296.42V757.948H285.148ZM440.989 664.857H452.261V726.493C452.261 732.857 450.761 738.539 447.761 743.539C444.792 748.508 440.595 752.433 435.17 755.311C429.746 758.16 423.383 759.584 416.08 759.584C408.777 759.584 402.413 758.16 396.989 755.311C391.564 752.433 387.352 748.508 384.352 743.539C381.383 738.539 379.898 732.857 379.898 726.493V664.857H391.17V725.584C391.17 730.129 392.17 734.175 394.17 737.72C396.17 741.236 399.019 744.008 402.716 746.039C406.443 748.039 410.898 749.039 416.08 749.039C421.261 749.039 425.716 748.039 429.443 746.039C433.17 744.008 436.019 741.236 437.989 737.72C439.989 734.175 440.989 730.129 440.989 725.584V664.857ZM474.773 664.857H488.227L519.864 742.129H520.955L552.591 664.857H566.045V757.948H555.5V687.22H554.591L525.5 757.948H515.318L486.227 687.22H485.318V757.948H474.773V664.857Z" fill="black"/>
<path d="M348 394.948C159.851 391.824 74.6099 391.814 11.5 399.448V373.948C66.3496 365.353 141.175 364.247 340 366.948C337.323 378.198 339.863 384.286 348 394.948Z" fill="black"/>
<path d="M338 334.448C149.851 331.324 74.1099 338.314 11 345.948V319.448C65.8496 310.853 144.675 303.747 343.5 306.448C340.823 317.698 333.5 319.448 338 334.448Z" fill="black"/>
<path d="M341 275.448C152.851 272.324 75.1099 286.396 12 294.029V267.529C66.8496 258.934 125.5 247.448 329.5 247.448C322.772 263.294 331.464 266.161 341 275.448Z" fill="black"/>
<path d="M1505 342.031C1255.25 311.202 1030.82 312.054 338.148 383C338.148 383 337.814 363.812 338.148 351.524C543.59 298.064 1419.61 226.619 1505 298.064V342.031Z" fill="black"/>
<path d="M1504.5 230.448C1449 165.407 682.5 185.448 338.148 318.035C338.148 318.035 337.815 297.745 338.148 285.448C507 182.448 1407.57 58.3199 1504.5 182.448V230.448Z" fill="black"/>
<path d="M1505 107.731C1417.66 -0.294278 645.292 65.815 336.148 247C336.148 247 335.815 226.75 336.148 214.478C504.174 73.3882 1406.73 -95.206 1505 65.3166V107.731Z" fill="black"/>
</g>
<defs>
<clipPath id="clip0_1_68">
<rect width="1505" height="758" fill="white"/>
</clipPath>
</defs>
</svg>
